<svg xmlns="http://www.w3.org/2000/svg" width="1280" height="420" viewBox="0 0 1280 420"><defs><linearGradient id="bg" x1="0" y1="0" x2="1" y2=".7"><stop stop-color="#0b1220"/><stop offset=".48" stop-color="#281c52"/><stop offset="1" stop-color="#245579"/></linearGradient><linearGradient id="ink" x1="0" y1="0" x2="1" y2="1"><stop stop-color="#bbabff"/><stop offset="1" stop-color="#73e0ff"/></linearGradient><radialGradient id="halo"><stop stop-color="#73e0ff" stop-opacity=".2"/><stop offset="1" stop-color="#73e0ff" stop-opacity="0"/></radialGradient><pattern id="grid" width="40" height="40" patternUnits="userSpaceOnUse"><path d="M40 0H0V40" fill="none" stroke="#d3def5" stroke-opacity=".045"/></pattern><clipPath id="edge"><rect width="1280" height="420" rx="20"/></clipPath></defs><g clip-path="url(#edge)"><rect width="1280" height="420" fill="url(#bg)"/><ellipse cx="1060" cy="160" rx="390" ry="310" fill="url(#halo)"/><path d="M940-50 717 470H970L1193-50Z" fill="#bbabff" opacity=".035"/><rect width="1280" height="420" fill="url(#grid)"/><text x="56" y="76" fill="#bbabff" font-family="Arial,sans-serif" font-size="14" letter-spacing="2.5">OPEN THE BLACK BOX.</text><text x="51" y="191" fill="#f4f5fa" font-family="Arial,sans-serif" font-size="86" font-weight="700" letter-spacing="-4">Orama</text><text x="56" y="252" fill="#d0d9e8" font-family="Arial,sans-serif" font-size="25">See what your agent actually sends.</text><g transform="translate(1035 190)"><path d="M-156 0C-88-105 88-105 156 0C88 105-88 105-156 0Z" fill="none" stroke="url(#ink)" stroke-width="4" /><circle r="48" fill="#111d37" stroke="url(#ink)" stroke-width="3"/><circle r="29" fill="url(#ink)" opacity=".25"/><circle r="15" fill="url(#ink)"/><circle cx="9" cy="-10" r="5" fill="#eefaff"/><path d="M-174-44v-46h44M130-90h44v46M-174 44v46h44M130 90h44V44" fill="none" stroke="#aeb8e7" stroke-width="1" /><path d="M0-110v31M0 79v31M-187 0h26M161 0h26" fill="none" stroke="#92cdec" stroke-width="1" /><text x="-146" y="-108" fill="#d1e0ef" font-family="monospace" font-size="10" letter-spacing="1.4">REQUEST</text><text x="73" y="120" fill="#d1e0ef" font-family="monospace" font-size="10" letter-spacing="1.4">INSPECT</text><circle cx="-120" cy="-76" r="4" fill="url(#ink)"/><circle cx="120" cy="76" r="4" fill="url(#ink)"/></g><path d="M56 337H1224" stroke="#d3def5" stroke-opacity=".17"/><text x="56" y="371" fill="#8291aa" font-family="Arial,sans-serif" font-size="13" letter-spacing="2">BY ELIE LALOUM</text><path d="M1165 366H1224" stroke="url(#ink)" stroke-width="3"/></g></svg>